#!OML:ASF I:\Random Stuff\random\construction\7_22_03\Session 2\subj1.ASF
:FULLY-SPECIFIED
:DEGREES
926
root 7.4647 17.6047 -11.639 6.9325 -14.7526 -3.84662
lowerback 3.4406 -0.66324 3.31938
upperback -1.15633 -0.676128 1.91985
thorax -3.13692 -0.384021 0.156989
lowerneck -21.3735 2.7202 2.27212
upperneck 33.8764 0.0121943 7.79829
head 15.5941 1.41065 2.92787
rclavicle -1.44367e-014 -6.36111e-015
rhumerus -36.8548 -4.04269 -66.4579
rradius 77.1126
rwrist 17.649
rhand -15.3066 16.0692
rfingers 7.12502
rthumb 10.869 -13.6295
lclavicle -1.44367e-014 -6.36111e-015
lhumerus -35.0622 -17.458 95.2707
lradius 44.0436
lwrist 23.7269
lhand -20.1132 56.3939
lfingers 7.12502
lthumb 6.23054 -273.718
rfemur -5.42448 16.2955 23.8708
rtibia 6.01864
rfoot -9.78709 -48.1757
rtoes 19.2138
lfemur -13.1308 -9.39783 -13.3251
ltibia 25.9038
lfoot -17.8075 13.302
ltoes -23.2972
927
root 7.48046 17.6062 -11.6312 6.94907 -14.404 -3.83818
lowerback 3.42454 -0.56944 3.49913
upperback -1.28116 -0.542773 1.7835
thorax -3.25724 -0.324951 -0.091081
lowerneck -21.6155 3.57992 2.85328
upperneck 34.1105 1.02813 7.85585
head 15.7295 1.93218 3.06927
rclavicle -7.90169e-015 -1.90833e-014
rhumerus -37.5204 -4.56515 -66.3015
rradius 77.1421
rwrist 17.6264
rhand -15.099 15.9711
rfingers 7.12502
rthumb 11.0692 -13.717
lclavicle -7.90169e-015 -1.90833e-014
lhumerus -35.1357 -17.7873 95.2388
lradius 44.2355
lwrist 23.8095
lhand -19.861 56.2654
lfingers 7.12502
lthumb 6.47405 -273.854
rfemur -5.36857 15.942 23.8323
rtibia 5.96504
rfoot -10.1723 -48.1013
rtoes 19.776
lfemur -13.2552 -9.59005 -13.3618
ltibia 25.9449
lfoot -17.7224 13.1878
ltoes -23.3744
928
root 7.49987 17.5993 -11.6142 6.67194 -14.1742 -3.88349
lowerback 3.60793 -0.454789 3.68656
upperback -1.27821 -0.373914 1.6941
thorax -3.35522 -0.246907 -0.29701
lowerneck -21.8819 4.33831 3.29463
upperneck 34.327 1.96414 7.87017
head 15.8683 2.39355 3.20484
rclavicle -6.48535e-015 2.32578e-014
rhumerus -38.2137 -5.01266 -66.1329
rradius 77.1982
rwrist 17.62
rhand -15.119 15.8449
rfingers 7.12502
rthumb 11.0499 -13.8442
lclavicle -6.48535e-015 2.32578e-014
lhumerus -35.1028 -17.8853 95.1637
lradius 44.3768
lwrist 23.6719
lhand -19.2716 55.9312
lfingers 7.12502
lthumb 7.04299 -274.206
rfemur -4.88738 15.6896 23.9073
rtibia 5.82634
rfoot -10.6996 -48.0094
rtoes 20.5721
lfemur -12.9836 -9.83142 -13.4551
ltibia 26.0254
lfoot -17.7119 13.2262
ltoes -23.4638
929
root 7.51647 17.6072 -11.6093 6.93285 -13.7028 -3.90376
lowerback 3.36224 -0.377484 3.79953
upperback -1.44774 -0.274397 1.62705
thorax -3.38985 -0.202725 -0.436163
lowerneck -22.1747 4.94799 3.58513
upperneck 34.4685 2.72617 7.92295
head 15.9831 2.76573 3.3491
rclavicle 3.41661e-015 2.24627e-014
rhumerus -38.9528 -5.56348 -65.8796
rradius 77.29
rwrist 17.7343
rhand -15.3853 15.761
rfingers 7.12502
rthumb 10.7932 -13.9417
lclavicle 3.41661e-015 2.24627e-014
lhumerus -35.0088 -17.8962 95.0798
lradius 44.5135
lwrist 23.3879
lhand -18.813 55.7369
lfingers 7.12502
lthumb 7.48565 -274.416
rfemur -5.01878 15.237 23.8684
rtibia 5.67986
rfoot -11.5867 -47.843
rtoes 22.2266
lfemur -13.445 -9.85196 -13.4001
ltibia 26.1003
lfoot -17.5669 12.8404
ltoes -23.34
930
root 7.53606 17.6079 -11.6025 6.86742 -13.2574 -3.81458
lowerback 3.4045 -0.266959 3.87459
upperback -1.52933 -0.123575 1.44771
thorax -3.49352 -0.133673 -0.671816
lowerneck -22.4325 5.41459 3.94292
upperneck 34.5084 3.27817 7.90566
head 16.0553 3.04666 3.40504
rclavicle -1.48964e-014 1.61016e-014
rhumerus -39.7886 -6.42593 -65.591
rradius 77.3651
rwrist 17.8264
rhand -15.5942 15.7662
rfingers 7.12502
rthumb 10.5916 -13.9469
lclavicle -1.48964e-014 1.61016e-014
lhumerus -34.879 -17.9175 94.912
lradius 44.6685
lwrist 23.0471
lhand -18.612 55.6662
lfingers 7.12502
lthumb 7.67968 -274.493
rfemur -4.75105 14.7748 23.7909
rtibia 5.42339
rfoot -12.3102 -47.7111
rtoes 23.7869
lfemur -13.581 -9.66078 -13.529
ltibia 26.1981
lfoot -17.5596 12.1607
ltoes -22.8673
931
root 7.55745 17.6116 -11.5946 6.8864 -12.7401 -3.77884
lowerback 3.35545 -0.164977 3.98323
upperback -1.62105 0.0130619 1.28032
thorax -3.55555 -0.0721214 -0.913611
lowerneck -22.5725 5.78785 4.28908
upperneck 34.364 3.72764 7.84559
head 16.0159 3.27407 3.407
rclavicle -1.03741e-014 3.18055e-015
rhumerus -40.673 -7.36302 -65.2555
rradius 77.4688
rwrist 17.6402
rhand -15.8284 15.8041
rfingers 7.12502
rthumb 10.3657 -13.9204
lclavicle -1.03741e-014 3.18055e-015
lhumerus -34.6878 -17.9144 94.7354
lradius 44.8043
lwrist 22.9288
lhand -18.5015 55.6096
lfingers 7.12502
lthumb 7.78628 -274.554
rfemur -4.41787 14.2473 23.7154
rtibia 4.86199
rfoot -12.8515 -47.6004
rtoes 25.4622
lfemur -13.8262 -9.427 -13.5975
ltibia 26.3233
lfoot -17.5151 11.4467
ltoes -22.8692
932
root 7.57822 17.6146 -11.5859 6.97258 -12.2316 -3.92249
lowerback 3.27115 -0.0429581 4.15229
upperback -1.70593 0.180209 1.21501
thorax -3.58815 0.00466463 -1.0859
lowerneck -22.7105 6.0234 4.4294
upperneck 34.1579 4.01462 7.89677
head 15.9417 3.42249 3.45516
rclavicle -2.1829e-014 -7.55382e-015
rhumerus -41.5725 -8.30315 -64.7765
rradius 77.6521
rwrist 17.4036
rhand -15.946 15.9087
rfingers 7.12502
rthumb 10.2522 -13.8214
lclavicle -2.1829e-014 -7.55382e-015
lhumerus -34.4801 -17.9188 94.6247
lradius 44.917
lwrist 22.8956
lhand -18.34 55.5151
lfingers 7.12502
lthumb 7.94223 -274.654
rfemur -4.19712 13.7536 23.82
rtibia 4.45157
rfoot -13.4443 -47.4619
rtoes 26.9236
lfemur -14.0867 -9.33219 -13.4694
ltibia 26.4408
lfoot -17.3933 10.9426
ltoes -23.1809
933
root 7.60147 17.6131 -11.5792 7.01885 -11.6744 -4.11654
lowerback 3.24676 0.0485059 4.316
upperback -1.78542 0.311417 1.21202
thorax -3.65005 0.0637938 -1.18861
lowerneck -22.7343 6.14845 4.60225
upperneck 33.8921 4.2271 7.70053
head 15.8219 3.5054 3.36636
rclavicle 5.28332e-015 6.95746e-015
rhumerus -42.3638 -9.2862 -64.2008
rradius 77.7384
rwrist 17.3354
rhand -15.8576 16.0616
rfingers 7.12502
rthumb 10.3375 -13.6643
lclavicle 5.28332e-015 6.95746e-015
lhumerus -34.2794 -17.743 94.5197
lradius 45.0026
lwrist 22.6469
lhand -18.1524 55.4767
lfingers 7.12502
lthumb 8.12327 -274.699
rfemur -3.84548 13.216 24.0008
rtibia 3.89119
rfoot -13.8684 -47.334
rtoes 28.2953
lfemur -14.3255 -9.32161 -13.2887
ltibia 26.5712
lfoot -17.3209 10.4776
ltoes -23.4221
934
root 7.62702 17.6124 -11.5715 6.91037 -11.0904 -4.04443
lowerback 3.29473 0.0793944 4.17436
upperback -1.83748 0.349361 1.17873
thorax -3.72934 0.0837148 -1.1463
lowerneck -22.6548 6.25697 4.83676
upperneck 33.5962 4.47348 7.30213
head 15.6721 3.57872 3.18108
rclavicle -3.33368e-014 -4.12478e-015
rhumerus -42.9725 -10.1651 -63.6184
rradius 77.6806
rwrist 17.2553
rhand -15.749 16.0837
rfingers 7.12502
rthumb 10.4423 -13.637
lclavicle -3.33368e-014 -4.12478e-015
lhumerus -34.0566 -17.2625 94.3795
lradius 45.1023
lwrist 22.4121
lhand -18.0735 55.5661
lfingers 7.12502
lthumb 8.19938 -274.613
rfemur -3.2419 12.6079 23.9007
rtibia 3.08943
rfoot -14.1156 -47.1925
rtoes 29.5168
lfemur -14.457 -9.20227 -13.4352
ltibia 26.7134
lfoot -17.3412 9.89842
ltoes -24.1051
935
root 7.6519 17.6128 -11.568 6.89385 -10.4482 -4.07302
lowerback 3.31625 0.102715 4.13016
upperback -1.90914 0.380816 1.14192
thorax -3.81422 0.0976319 -1.16166
lowerneck -22.6621 6.3265 4.97397
upperneck 33.3556 4.62661 7.07082
head 15.5659 3.62615 3.07465
rclavicle -3.35915e-014 -1.10822e-014
rhumerus -43.5554 -11.0427 -63.0693
rradius 77.6292
rwrist 17.1696
rhand -15.7062 15.8862
rfingers 7.12502
rthumb 10.4835 -13.8324
lclavicle -3.35915e-014 -1.10822e-014
lhumerus -33.8646 -16.9144 94.2428
lradius 45.2576
lwrist 22.5067
lhand -18.2369 55.6698
lfingers 7.12502
lthumb 8.04166 -274.503
rfemur -2.59529 11.9576 23.8686
rtibia 2.0015
rfoot -14.0268 -47.0826
rtoes 30.4311
lfemur -14.7043 -9.02431 -13.4434
ltibia 26.8693
lfoot -17.3372 9.18294
ltoes -24.588
